<?xml version="1.0" encoding="utf-8"?>
<!-- Generator: Adobe Illustrator 19.0.0, SVG Export Plug-In . SVG Version: 6.00 Build 0)  -->
<svg version="1.1" id="Layer_1" xmlns="http://www.w3.org/2000/svg" xmlns:xlink="http://www.w3.org/1999/xlink" x="0px" y="0px"
	 viewBox="-3 340.6 722 112.4" style="enable-background:new -3 340.6 722 112.4;" xml:space="preserve">
<style type="text/css">
	.st0{fill:none;}
	.st1{enable-background:new    ;}
	.st2{fill:#0E6DAA;}
	.st3{fill:#0D5D88;}
	.st4{fill:#88C562;}
	.st5{fill:#479945;}
</style>
<g>
	<line class="st0" x1="230.3" y1="428.3" x2="230.3" y2="367.4"/>
	<g class="st1">
		<path d="M272.5,425.1h-40.4v-7.5l26-37.3h-25.3v-9.5h39v7.4l-26,37.3h26.7L272.5,425.1L272.5,425.1z"/>
		<path d="M312.4,425.1h-31.2v-54.3h31.2v9.4h-19.8v11.9H311v9.4h-18.4v14h19.7L312.4,425.1L312.4,425.1z"/>
		<path d="M344.6,425.1h-11.5v-44.7h-14.7v-9.6h41v9.6h-14.8V425.1z"/>
		<path d="M388.6,425.1h-11.5v-44.7h-14.7v-9.6h41v9.6h-14.8V425.1z"/>
		<path d="M444.9,425.1l-3.9-12.9h-19.8l-3.9,12.9h-12.4l19.1-54.5h14.1l19.2,54.5H444.9z M438.3,402.5c-3.6-11.7-5.7-18.3-6.1-19.9
			c-0.5-1.5-0.8-2.7-1-3.6c-0.8,3.2-3.2,11-7,23.5H438.3z"/>
		<path d="M508.6,425.1h-11.5v-23.4h-21.5v23.4h-11.5v-54.3h11.5v21.3h21.5v-21.3h11.5V425.1z"/>
		<path d="M571.6,397.9c0,9-2.2,15.9-6.7,20.7s-10.8,7.2-19.1,7.2c-8.3,0-14.7-2.4-19.1-7.2c-4.4-4.8-6.7-11.8-6.7-20.8
			s2.2-15.9,6.7-20.7c4.5-4.8,10.9-7.1,19.2-7.1c8.3,0,14.7,2.4,19.1,7.2C569.4,382,571.6,388.9,571.6,397.9z M532,397.9
			c0,6.1,1.2,10.6,3.5,13.7c2.3,3.1,5.7,4.6,10.3,4.6c9.2,0,13.8-6.1,13.8-18.3c0-12.2-4.6-18.3-13.7-18.3c-4.6,0-8,1.5-10.4,4.6
			C533.1,387.3,532,391.8,532,397.9z"/>
		<path d="M614.8,410c0,4.9-1.8,8.8-5.3,11.6s-8.4,4.2-14.7,4.2c-5.8,0-10.9-1.1-15.4-3.3v-10.7c3.7,1.6,6.8,2.8,9.3,3.5s4.9,1,7,1
			c2.5,0,4.5-0.5,5.8-1.4c1.3-1,2-2.4,2-4.3c0-1.1-0.3-2-0.9-2.8s-1.5-1.6-2.6-2.4c-1.2-0.8-3.5-2-7-3.7c-3.3-1.6-5.8-3.1-7.5-4.5
			c-1.7-1.4-3-3.1-4-5s-1.5-4.1-1.5-6.7c0-4.8,1.6-8.6,4.9-11.3c3.3-2.7,7.7-4.1,13.5-4.1c2.8,0,5.5,0.3,8.1,1s5.2,1.6,8,2.8
			l-3.7,8.9c-2.9-1.2-5.3-2-7.2-2.5s-3.8-0.7-5.6-0.7c-2.2,0-3.8,0.5-5,1.5c-1.2,1-1.7,2.3-1.7,4c0,1,0.2,1.9,0.7,2.7
			c0.5,0.8,1.2,1.5,2.2,2.2s3.5,2,7.3,3.8c5.1,2.4,8.5,4.9,10.4,7.3C613.9,403.5,614.8,406.5,614.8,410z"/>
		<path d="M645.6,425.1h-11.5v-44.7h-14.7v-9.6h41v9.6h-14.8V425.1z"/>
	</g>
	<g>
		<polygon id="XMLID_3_" class="st2" points="161.5,396.8 108.6,396.8 134,340.6 187,340.6 		"/>
		<polygon id="XMLID_7_" class="st3" points="108.6,396.8 55.6,396.8 81.1,340.6 134,340.6 		"/>
		<polygon id="XMLID_9_" class="st4" points="189,453 136.1,453 161.5,396.8 214.5,396.8 		"/>
		<polygon id="XMLID_8_" class="st5" points="136.1,453 83.1,453 108.6,396.8 161.5,396.8 		"/>
	</g>
</g>
</svg>
